<?xml version="1.0" encoding="UTF-8" standalone="no"?>
<!-- Created with Inkscape (http://www.inkscape.org/) -->

<svg
   xmlns:dc="http://purl.org/dc/elements/1.1/"
   xmlns:cc="http://creativecommons.org/ns#"
   xmlns:rdf="http://www.w3.org/1999/02/22-rdf-syntax-ns#"
   xmlns:svg="http://www.w3.org/2000/svg"
   xmlns="http://www.w3.org/2000/svg"
   xmlns:xlink="http://www.w3.org/1999/xlink"
   xmlns:sodipodi="http://sodipodi.sourceforge.net/DTD/sodipodi-0.dtd"
   xmlns:inkscape="http://www.inkscape.org/namespaces/inkscape"
   width="686.45398"
   height="1028.2937"
   viewBox="0 0 181.62428 272.06937"
   version="1.1"
   id="svg8"
   inkscape:version="0.92.3 (2405546, 2018-03-11)"
   sodipodi:docname="WDIV.svg"
   inkscape:export-filename="C:\Users\Jax.DESKTOP-4NT9JVD\Pictures\WDIV-NBC.png"
   inkscape:export-xdpi="66.239998"
   inkscape:export-ydpi="66.239998">
  <defs
     id="defs2">
    <linearGradient
       inkscape:collect="always"
       xlink:href="#SVGID_1_"
       id="linearGradient1137"
       gradientUnits="userSpaceOnUse"
       x1="113.14"
       y1="8.8559999"
       x2="120.416"
       y2="8.8559999" />
    <linearGradient
       inkscape:collect="always"
       xlink:href="#SVGID_1_"
       id="linearGradient1139"
       gradientUnits="userSpaceOnUse"
       x1="113.14"
       y1="8.8559999"
       x2="120.416"
       y2="8.8559999" />
  </defs>
  <sodipodi:namedview
     id="base"
     pagecolor="#ffffff"
     bordercolor="#666666"
     borderopacity="1.0"
     inkscape:pageopacity="0.0"
     inkscape:pageshadow="2"
     inkscape:zoom="0.25"
     inkscape:cx="417.02003"
     inkscape:cy="257.80345"
     inkscape:document-units="mm"
     inkscape:current-layer="layer1"
     showgrid="false"
     fit-margin-top="0"
     fit-margin-left="0"
     fit-margin-right="0"
     fit-margin-bottom="0"
     units="px"
     inkscape:window-width="1920"
     inkscape:window-height="1013"
     inkscape:window-x="-9"
     inkscape:window-y="-9"
     inkscape:window-maximized="1" />
  <metadata
     id="metadata5">
    <rdf:RDF>
      <cc:Work
         rdf:about="">
        <dc:format>image/svg+xml</dc:format>
        <dc:type
           rdf:resource="http://purl.org/dc/dcmitype/StillImage" />
        <dc:title></dc:title>
      </cc:Work>
    </rdf:RDF>
  </metadata>
  <g
     inkscape:label="Layer 1"
     inkscape:groupmode="layer"
     id="layer1"
     transform="translate(641.47396,79.84087)">
    <g
       style="display:none"
       class="st0"
       id="g858"
       transform="matrix(2.2468585,0,0,2.2468585,-154.7907,96.483634)">
      <g
         style="display:inline"
         class="st1"
         id="g832">
        <path
           style="fill:#a81e23"
           inkscape:connector-curvature="0"
           d="M 187.2,27.9 C 193,28.3 198.6,22.4 198.6,15.2 198.6,8 193,2.1 186.1,2.1 H 14.6 C 7.7,2.1 2.1,8 2.1,15.2 c 0,7.2 5.6,13.1 13.6,12.7 z"
           id="path828" />
        <path
           style="fill:#dcdcdc"
           inkscape:connector-curvature="0"
           d="m 186.1,2.1 c 6.9,0 12.5,5.9 12.5,13.1 0,7 -5.3,12.7 -10.9,12.7 H 15 C 7.4,27.9 2.1,22.2 2.1,15.2 2.1,8 7.7,2.1 14.6,2.1 h 171.5 m 0,-2.1 H 14.6 C 6.6,0 0,6.8 0,15.2 0,19.2 1.5,22.9 4.2,25.7 7,28.5 10.8,30 15,30 h 172.7 c 3.3,0 6.6,-1.6 9.1,-4.4 2.5,-2.8 3.9,-6.5 3.9,-10.4 C 200.7,6.8 194.1,0 186.1,0 Z"
           id="path830" />
      </g>
      <path
         style="display:inline;fill:#ffffff"
         inkscape:connector-curvature="0"
         class="st4"
         d="m 16.7,20.7 0.6,-3.2 h 4.6 L 21.4,20 c -0.6,3.5 -2.9,5.2 -6.8,5.2 -3.8,0 -5.4,-1.8 -4.7,-5.5 l 1.6,-8.6 c 0.7,-3.7 2.9,-5.5 6.7,-5.5 1.9,0 3.2,0.4 4.1,1.1 0.9,0.7 1.1,2.1 0.8,4 l -0.4,2.1 h -4.6 l 0.5,-2.6 c 0.2,-1 -0.1,-1.5 -1,-1.5 -0.8,0 -1.3,0.5 -1.4,1.5 l -1.9,10.6 c -0.2,1 0.1,1.5 0.9,1.5 0.8,-0.1 1.3,-0.6 1.5,-1.6 z m 12.9,-14.8 -3.5,19 h -4.4 l 3.5,-19 z m 5.6,0 -0.5,2.7 H 30.3 L 30.8,5.9 Z M 34.5,9.7 31.7,25 H 27.3 L 30.1,9.7 Z m 10.8,5.4 h -4.4 l 0.3,-1.7 c 0.1,-0.7 -0.1,-1.1 -0.7,-1.1 -0.6,0 -0.9,0.4 -1.1,1.1 l -1.4,8 c -0.1,0.7 0.1,1.1 0.7,1.1 0.6,0 1,-0.4 1.1,-1.1 L 40.2,19 h 4.4 l -0.4,2.2 c -0.2,1.4 -0.9,2.4 -1.9,3 -1,0.6 -2.4,1 -4.1,1 -3.5,0 -5,-1.4 -4.4,-4.2 l 1.3,-7.1 c 0.2,-1.3 0.9,-2.3 2,-3.1 1.1,-0.8 2.4,-1.2 4,-1.2 1.7,0 2.9,0.3 3.7,1 0.8,0.7 1.1,1.8 0.8,3.3 z m 3.8,9.8 h -4.4 l 3.5,-19 h 4.4 l -1.9,10.7 3.5,-7 h 4.2 l -3.7,6.8 1.2,8.4 h -4.4 l -0.8,-8 z M 170.7,24 h -1.5 l 0.3,-1.4 h 1.5 z m 6.3,-1.8 c -0.2,0.5 -0.9,2 -2.8,2 -2,0 -2.1,-1.5 -1.9,-2.5 0.4,-1.6 1.4,-2.8 3.1,-2.8 0.8,0 2.1,0.4 1.9,2 h -1.4 c 0,-0.3 -0.1,-0.9 -0.7,-0.8 -0.9,0 -1.3,0.8 -1.4,1.5 -0.1,0.6 -0.3,1.7 0.7,1.7 0.7,0 1.1,-0.7 1.1,-0.9 h 1.4 z m 4.7,-0.7 c -0.1,0.7 -0.5,1.6 -1.6,1.6 -1.1,0 -1.1,-0.9 -0.9,-1.6 0.1,-0.6 0.5,-1.5 1.6,-1.5 1.1,-0.1 1.1,0.8 0.9,1.5 z m 1.5,0 c 0.4,-1.8 -0.7,-2.7 -2.1,-2.7 -1.4,0 -2.9,0.8 -3.3,2.7 -0.4,1.8 0.7,2.7 2.1,2.7 1.4,-0.1 2.9,-0.9 3.3,-2.7 z m 7.9,2.5 h -1.4 l 0.7,-3.1 c 0.2,-0.8 -0.1,-1 -0.5,-1 -0.7,0 -1,0.4 -1.2,1 L 188,24 h -1.4 l 0.7,-3.1 c 0.1,-0.4 0.2,-1 -0.6,-1 -0.7,0 -1,0.4 -1.1,1 l -0.7,3.1 h -1.4 l 1.1,-5.1 h 1.3 l -0.2,0.7 c 0.3,-0.3 0.8,-0.9 1.7,-0.9 0.8,0 1.1,0.3 1.3,0.8 0.2,-0.2 0.7,-0.8 1.6,-0.8 1,0 1.7,0.6 1.5,1.7 z"
         id="path834" />
      <g
         style="display:inline"
         class="st1"
         id="g838">
        <path
           style="fill:#ffffff"
           inkscape:connector-curvature="0"
           class="st5"
           d="m 91,15.5 -1.7,8.8 H 84.5 L 88.1,5.9 h 4.8 l -1.3,6.8 H 94 l 1.3,-6.8 h 4.7 l -3.6,18.4 h -4.7 l 1.7,-8.8 z M 105.6,12 c 0.6,0 0.9,0.3 0.7,1 l -1.5,7.7 c -0.1,0.7 -0.5,1 -1.1,1 -0.6,0 -0.8,-0.3 -0.7,-1 l 1.5,-7.7 c 0.2,-0.6 0.5,-1 1.1,-1 z m 4.3,-1.7 c -0.9,-0.6 -2.2,-0.9 -3.8,-0.9 -2,0 -3.5,0.4 -4.5,1.2 -1,0.8 -1.6,1.8 -1.8,3 l -1.4,7 c -0.3,1.3 0.1,2.3 1,2.9 0.9,0.7 2.1,1 3.7,1 1.7,0 3.1,-0.4 4.2,-1.1 1.1,-0.7 1.8,-1.7 2,-2.8 l 1.4,-7 c 0.4,-1.6 0.1,-2.7 -0.8,-3.3 z m 11,14 h -4.5 l 0.4,-1.8 c -0.8,1.3 -2,2 -3.7,2 -0.9,0 -1.6,-0.2 -2.1,-0.7 -0.5,-0.5 -0.6,-1.4 -0.3,-2.7 L 113,9.5 h 4.5 l -2,10.3 c -0.1,0.5 -0.1,0.8 0,1 0.1,0.2 0.3,0.3 0.6,0.3 0.6,0 1.1,-0.4 1.2,-1.3 l 2,-10.3 h 4.5 z m 14.5,-11.2 -0.3,1.7 h -4.5 l 0.3,-1.6 c 0.1,-0.7 -0.1,-1.1 -0.7,-1.1 -0.6,0 -1,0.4 -1.1,1.1 -0.1,0.6 0.1,1.1 0.6,1.4 0.7,0.4 1.4,0.8 2.2,1.3 0.8,0.5 1.4,1 1.8,1.6 0.4,0.6 0.5,1.5 0.3,2.6 -0.6,3 -2.8,4.5 -6.6,4.5 -1.5,0 -2.7,-0.3 -3.5,-0.9 -0.8,-0.6 -1.1,-1.5 -0.9,-2.8 l 0.5,-2.3 h 4.5 l -0.4,2.2 c -0.1,0.7 0.1,1.1 0.7,1.1 0.6,0 1,-0.4 1.2,-1.1 0.1,-0.7 0,-1.2 -0.3,-1.5 -0.3,-0.3 -1.1,-0.9 -2.3,-1.5 -1.1,-0.6 -1.9,-1.1 -2.2,-1.7 -0.4,-0.6 -0.5,-1.4 -0.3,-2.4 0.3,-1.4 0.9,-2.4 2,-3.1 1.1,-0.7 2.4,-1 4.1,-1 1.8,0 3.2,0.3 4,0.9 0.8,0.4 1.1,1.3 0.9,2.6 z m 0.8,8.2 1.8,-9.1 h -1.5 L 137,9.5 h 1.5 L 139,6.8 h 4.5 L 143,9.5 h 2 l -0.5,2.7 h -2 l -1.6,8.1 c -0.1,0.5 -0.1,0.9 0,1.1 0.1,0.2 0.4,0.3 0.9,0.3 h 0.9 l -0.5,2.7 h -3.7 c -1,0 -1.7,-0.2 -2,-0.7 -0.5,-0.6 -0.5,-1.4 -0.3,-2.4 z M 150.8,12 c 0.6,0 0.9,0.3 0.7,1 l -1.5,7.7 c -0.1,0.7 -0.5,1 -1.1,1 -0.6,0 -0.8,-0.3 -0.7,-1 l 1.5,-7.7 c 0.1,-0.6 0.5,-1 1.1,-1 z m 4.3,-1.7 c -0.9,-0.6 -2.2,-0.9 -3.8,-0.9 -2,0 -3.5,0.4 -4.5,1.2 -1,0.8 -1.6,1.8 -1.8,3 l -1.4,7 c -0.3,1.3 0.1,2.3 1,2.9 0.9,0.7 2.1,1 3.7,1 1.7,0 3.1,-0.4 4.2,-1.1 1.1,-0.7 1.8,-1.7 2,-2.8 l 1.4,-7 c 0.4,-1.6 0.1,-2.7 -0.8,-3.3 z m 3,-0.8 h 4.5 l -0.4,1.8 c 0.8,-1.3 2,-2 3.7,-2 0.9,0 1.6,0.3 2,0.8 0.5,0.5 0.6,1.4 0.3,2.6 l -2.3,11.6 h -4.5 l 2,-10.3 c 0.1,-0.5 0.1,-0.9 0,-1.1 -0.1,-0.2 -0.3,-0.3 -0.7,-0.3 -0.6,0 -1,0.5 -1.2,1.3 l -2,10.3 H 155 Z"
           id="path836" />
      </g>
      <path
         style="fill:#283984"
         inkscape:connector-curvature="0"
         d="M 60.4,2.1 H 82.6 V 27.9 H 60.4 Z"
         id="path840" />
      <path
         style="display:inline;fill:#ffffff"
         inkscape:connector-curvature="0"
         class="st4"
         d="M 79.7,22.4 58.6,27 70.8,13.7 l 4,1.8 -0.6,-4 4.6,-3.4 -5.1,1.2 -0.4,-3 -2.9,3.7 -5,1.1 3.1,1.4 -0.7,1 -5.9,1.3 c 0.2,-1 0.5,-2.1 0.9,-3 0.6,-1.4 1.5,-2.6 2.3,-3.6 0.6,-0.7 1,-1.2 1.8,-1.8 0.8,-0.7 1.2,-0.9 2.3,-1.5 1,-0.5 1.8,-0.8 2.8,-1.1 1.9,-0.7 4.9,-0.9 6.4,-0.4 1,0.3 1.7,0.7 2.3,1.6 0.4,0.6 0.5,0.9 0.6,1.6 0.1,0.6 0.2,0.9 0.1,1.5 0,0.8 -0.2,1.4 -0.5,2.1 -0.5,1.1 -1.7,2.6 -2.6,3.6 -0.7,0.8 -1.9,1.8 -3,2.9 -0.6,0.5 -0.9,0.8 -1.4,1.3 l 7.7,-1.7 z"
         id="path842" />
      <path
         style="display:inline;fill:#ffffff"
         inkscape:connector-curvature="0"
         class="st4"
         d="m 80.9,27.4 c 0.7,0 1.1,-0.6 1.1,-1.2 -0.1,-0.8 -0.8,-1.1 -1.2,-1 0.3,-0.2 0.8,-1 0.1,-1.7 C 80.4,23 79.7,23.2 79.5,23.4 79.6,23 79.4,22.1 78.6,22 77.8,21.9 77.5,22.4 77.4,22.7 77.3,22.3 76.9,22 76.3,22 c -0.8,0.1 -1.1,0.9 -1,1.4 -0.3,-0.2 -0.9,-0.3 -1.4,0.1 -0.6,0.6 -0.3,1.5 0.1,1.7 -0.4,0 -1,0.2 -1.1,0.9 -0.1,0.8 0.5,1.3 1.1,1.3 z"
         id="path844" />
      <path
         style="fill:#f47735"
         inkscape:connector-curvature="0"
         d="m 75.5,24 1.3,2.9 -2.6,-1.8 c -0.7,-0.4 -0.5,-1.2 -0.2,-1.5 0.5,-0.4 1.2,-0.3 1.5,0.4 z"
         id="path846" />
      <path
         style="fill:#d31245"
         inkscape:connector-curvature="0"
         d="m 77.3,23.3 -0.5,3.3 -1.3,-3.1 c -0.3,-0.8 0.4,-1.3 0.8,-1.3 0.5,-0.1 1.1,0.3 1,1.1 z"
         id="path848" />
      <path
         style="fill:#8177b7"
         inkscape:connector-curvature="0"
         d="M 79.3,23.5 78,26.6 77.6,23.8 c 0,-0.4 0.2,-0.4 0.3,-0.5 0,-0.1 -0.2,-0.1 -0.2,-0.1 h -0.3 c 0,-0.7 0.5,-1.1 1,-1 0.6,0 1.1,0.6 0.9,1.3 z"
         id="path850" />
      <path
         style="fill:#00a0df"
         inkscape:connector-curvature="0"
         d="M 80.6,25.1 78,26.9 79.2,24 c 0.4,-0.9 1.3,-0.7 1.6,-0.4 0.3,0.4 0.4,1.1 -0.2,1.5 z"
         id="path852" />
      <path
         style="fill:#7ac143"
         inkscape:connector-curvature="0"
         d="m 80.9,27.3 h -3.1 l 2.5,-1.7 c 0.6,-0.4 1.3,0 1.4,0.5 0.2,0.5 -0.2,1.2 -0.8,1.2 z"
         id="path854" />
      <path
         style="fill:#fdb913"
         inkscape:connector-curvature="0"
         d="m 73,26 c 0.2,-0.6 0.9,-0.8 1.5,-0.5 L 77,27.2 H 74 C 73.3,27.3 72.8,26.7 73,26 Z"
         id="path856" />
    </g>
    <g
       style="display:none"
       class="st0"
       id="g886"
       transform="matrix(2.2468585,0,0,2.2468585,-154.7907,96.483634)">
      <path
         style="fill:#a81f23"
         inkscape:connector-curvature="0"
         d="M 90.4,0 H 112 V 5.2 H 90.4 Z"
         id="path860" />
      <path
         style="fill:#293a84"
         inkscape:connector-curvature="0"
         d="M 90.4,4.9 H 112 V 30 H 90.4 Z"
         id="path862" />
      <g
         style="display:inline"
         class="st1"
         id="g880">
        <path
           style="fill:#ffffff;stroke:#ffffff;stroke-width:0.07;stroke-miterlimit:3.86400008"
           inkscape:connector-curvature="0"
           d="m 109.2,24.6 -20.6,4.5 11.9,-13 3.9,1.7 -0.6,-3.9 4.5,-3.3 -4.9,1.2 -0.4,-2.8 -2.9,3.6 -4.9,1.1 3,1.4 -0.7,1 -5.7,1.3 c 0.2,-1 0.5,-2 0.9,-2.9 C 93.3,13.1 94.2,12 95,11 95.6,10.3 96,9.9 96.8,9.2 97.6,8.5 98,8.3 99,7.7 c 1,-0.6 1.8,-0.9 2.8,-1.2 1.9,-0.7 4.8,-0.9 6.2,-0.4 0.9,0.3 1.6,0.7 2.2,1.6 0.4,0.5 0.5,0.9 0.6,1.6 0.1,0.6 0.2,0.9 0.1,1.5 0,0.8 -0.2,1.3 -0.5,2 -0.5,1.1 -1.7,2.5 -2.6,3.5 -0.7,0.8 -1.9,1.8 -3,2.8 -0.5,0.5 -0.9,0.8 -1.4,1.2 l 7.5,-1.7 z"
           stroke-miterlimit="3.864"
           id="path864" />
        <path
           style="fill:#ffffff"
           inkscape:connector-curvature="0"
           class="st5"
           d="m 110.4,29.5 c 0.7,0 1.1,-0.6 1.1,-1.2 -0.1,-0.8 -0.8,-1 -1.1,-1 0.3,-0.2 0.7,-1 0.1,-1.6 -0.5,-0.5 -1.2,-0.3 -1.4,-0.1 0.1,-0.4 -0.1,-1.2 -0.9,-1.4 -0.7,-0.1 -1.1,0.4 -1.2,0.7 -0.1,-0.3 -0.5,-0.7 -1.1,-0.7 -0.8,0.1 -1.1,0.9 -0.9,1.3 -0.3,-0.2 -0.9,-0.3 -1.4,0.1 -0.6,0.6 -0.3,1.5 0.1,1.7 -0.4,0 -1,0.2 -1.1,0.9 -0.1,0.8 0.5,1.3 1.1,1.3 z"
           id="path866" />
        <path
           style="fill:#f47735"
           inkscape:connector-curvature="0"
           d="m 105.2,26.2 1.2,2.9 -2.6,-1.8 c -0.6,-0.4 -0.5,-1.2 -0.2,-1.5 0.6,-0.4 1.3,-0.2 1.6,0.4 z"
           id="path868" />
        <path
           style="fill:#d31245"
           inkscape:connector-curvature="0"
           d="m 106.9,25.6 -0.5,3.2 -1.3,-3 c -0.3,-0.8 0.3,-1.3 0.8,-1.3 0.5,-0.1 1.1,0.3 1,1.1 z"
           id="path870" />
        <path
           style="fill:#8177b7"
           inkscape:connector-curvature="0"
           d="m 108.8,25.7 -1.3,3 -0.4,-2.8 c 0,-0.4 0.2,-0.4 0.3,-0.5 0,-0.1 -0.1,-0.1 -0.1,-0.1 h -0.2 c 0,-0.7 0.5,-1 1,-1 0.5,0.2 1,0.7 0.7,1.4 z"
           id="path872" />
        <path
           style="fill:#00a0df"
           inkscape:connector-curvature="0"
           d="m 110.2,27.3 -2.6,1.8 1.2,-2.8 c 0.4,-0.9 1.2,-0.7 1.5,-0.4 0.4,0.3 0.5,1 -0.1,1.4 z"
           id="path874" />
        <path
           style="fill:#7ac143"
           inkscape:connector-curvature="0"
           d="m 110.4,29.4 h -3 l 2.4,-1.7 c 0.6,-0.4 1.2,0 1.4,0.5 0.2,0.6 -0.2,1.2 -0.8,1.2 z"
           id="path876" />
        <path
           style="fill:#fdb913"
           inkscape:connector-curvature="0"
           d="m 102.7,28.1 c 0.2,-0.6 0.9,-0.8 1.4,-0.4 l 2.4,1.7 h -2.9 c -0.6,0 -1.1,-0.6 -0.9,-1.3 z"
           id="path878" />
      </g>
      <g
         style="display:inline"
         class="st1"
         id="g884">
        <path
           style="fill:#ffffff"
           inkscape:connector-curvature="0"
           class="st5"
           d="m 92.7,2 h 0.5 L 94.6,0.7 H 96 l -1.9,1.8 2.2,1.8 H 94.8 L 93.2,3 H 92.7 V 4.3 H 91.6 V 0.7 h 1.1 z m 6.9,-1.3 h 0.6 c 0.1,0 0.3,0.1 0.4,0.1 0.2,0.1 0.3,0.2 0.4,0.4 V 2 c 0,0.5 -0.1,0.8 -0.2,1 -0.2,0.2 -0.4,0.3 -0.8,0.3 H 98 V 4.2 H 96.9 V 0.7 Z m -0.1,0.9 h -1.6 v 0.9 h 1.6 c 0.1,0 0.2,0 0.3,-0.1 0.1,-0.1 0.1,-0.2 0.1,-0.4 0,-0.1 0,-0.3 -0.1,-0.3 0,-0.1 -0.1,-0.1 -0.3,-0.1 z m 4.9,-0.9 c 0.6,0 0.9,0.1 1.2,0.3 0.2,0.2 0.3,0.5 0.3,0.9 0,0.3 0,0.5 -0.1,0.7 -0.1,0.1 -0.2,0.3 -0.5,0.3 0.2,0 0.3,0.1 0.4,0.2 0.1,0.1 0.1,0.3 0.1,0.4 v 0.7 h -1.1 V 3.7 c 0,-0.1 0,-0.2 -0.1,-0.3 -0.1,-0.1 -0.2,-0.1 -0.4,-0.1 h -1.6 v 0.9 h -1.1 V 0.7 Z m 0,0.9 h -1.7 v 0.9 h 1.7 c 0.1,0 0.2,0 0.3,-0.1 0.1,-0.1 0.1,-0.2 0.1,-0.4 0,-0.1 0,-0.2 -0.1,-0.3 -0.1,-0.1 -0.2,-0.1 -0.3,-0.1 z m 5.5,0.4 c 0,-0.2 0,-0.3 -0.1,-0.3 -0.1,-0.1 -0.2,-0.1 -0.4,-0.1 h -0.9 c -0.4,0 -0.6,0 -0.7,0.1 -0.1,0.1 -0.2,0.3 -0.2,0.6 v 0.5 c 0,0.3 0.1,0.4 0.2,0.5 0.1,0.1 0.4,0.1 0.7,0.1 h 0.6 c 0.3,0 0.6,0 0.7,-0.1 0.1,-0.1 0.2,-0.2 0.2,-0.4 h 1.1 v 0.2 c 0,0.2 0,0.4 -0.1,0.6 -0.1,0.1 -0.1,0.3 -0.3,0.4 -0.1,0.1 -0.3,0.1 -0.5,0.2 -0.2,0 -0.5,0.1 -0.9,0.1 h -1.2 c -0.4,0 -0.6,0 -0.8,-0.1 -0.2,0 -0.3,-0.1 -0.4,-0.2 C 106.8,4 106.7,3.8 106.6,3.7 106.5,3.5 106.5,3.3 106.5,3.1 V 2 c 0,-0.5 0.1,-0.9 0.4,-1.1 0.2,-0.2 0.7,-0.3 1.3,-0.3 h 1.2 c 0.4,0 0.7,0 0.9,0.1 0.2,0 0.3,0.1 0.4,0.2 0.1,0.1 0.2,0.2 0.2,0.3 0.1,0.1 0.1,0.3 0.1,0.5 v 0.2 h -1.1 z"
           id="path882" />
      </g>
    </g>
    <g
       style="display:none"
       class="st0"
       id="g907"
       transform="matrix(2.2468585,0,0,2.2468585,-154.7907,96.483634)">
      <path
         style="display:inline;fill:#231f20"
         inkscape:connector-curvature="0"
         class="st22"
         d="M 44,17.8 H 156.8 V 30 H 44 Z"
         id="path888" />
      <path
         style="display:inline;fill:#231f20"
         inkscape:connector-curvature="0"
         class="st22"
         d="M 43.9,0 H 156.7 V 17.9 H 43.9 Z"
         id="path890" />
      <path
         style="display:inline;fill:#ffffff"
         inkscape:connector-curvature="0"
         class="st4"
         d="M 44.8,0.9 H 155.9 V 17.2 H 44.8 Z"
         id="path892" />
      <path
         style="fill:#ec1c24"
         inkscape:connector-curvature="0"
         d="M 156.7,0 H 44"
         id="path894" />
      <path
         style="display:inline;fill:#ffffff"
         inkscape:connector-curvature="0"
         class="st4"
         d="m 56.9,19.3 h -5.3 v 8 h 4.1 c 1.2,0 2.7,0 3.8,-1.5 0.5,-0.7 0.8,-1.6 0.8,-2.6 C 60.4,21 59,19.5 56.9,19.3 m 0.8,5.7 c -0.5,0.7 -1.2,0.7 -1.9,0.7 h -2 V 21 h 2.1 c 0.6,0 1.4,0 1.8,0.7 0.2,0.4 0.4,0.9 0.4,1.5 0,0.8 -0.1,1.4 -0.4,1.8 m 12.4,-0.9 h 5.1 V 22.4 H 70.1 V 21 h 5.3 v -1.7 h -7.5 v 8 h 7.7 V 25.6 H 70.1 Z M 82.5,21 h 2.9 v 6.3 h 2.2 V 21 h 2.9 v -1.7 h -8 z m 23.1,2.6 c 0.7,-0.6 0.8,-1.5 0.8,-1.8 0,-0.4 -0.1,-1 -0.5,-1.6 -0.7,-0.8 -1.6,-0.9 -2.4,-0.9 H 98 v 8 h 2.3 v -3.1 h 1.9 l 2.1,3.1 H 107 L 104.6,24 c 0.2,0 0.6,-0.2 1,-0.4 M 100.2,21 h 2.8 c 0.7,0 0.9,0.2 1,0.3 0.1,0.2 0.1,0.4 0.1,0.5 0,0.5 -0.3,0.8 -1,0.8 h -2.9 z m 18.5,-2 h -0.3 c -2.9,0.1 -4.6,1.7 -4.6,4.3 0,2.6 1.9,4.3 4.9,4.3 3,0 4.9,-1.6 4.9,-4.3 0,-1.4 -0.6,-2.3 -0.9,-2.6 -0.8,-1.1 -2.3,-1.7 -4,-1.7 m 2.6,4.3 c 0,1.5 -1,2.5 -2.6,2.5 -1.4,0 -1.9,-0.7 -2.1,-1 -0.1,-0.2 -0.5,-0.6 -0.5,-1.5 0,-1.7 1.3,-2.6 2.5,-2.6 h 0.1 c 1.5,0.1 2.6,1.1 2.6,2.6 m 10.3,-4 h 2.3 v 8 h -2.3 z m 9.6,0 V 21 h 2.9 v 6.3 h 2.2 V 21 h 2.9 v -1.7 z"
         id="path896" />
      <path
         style="display:inline;fill:#231f20"
         inkscape:connector-curvature="0"
         class="st22"
         d="m 59.9,10.1 -0.1,0.2 c -0.1,0.3 -0.3,0.6 -0.7,1 -0.5,0.4 -1.2,0.7 -2,0.7 -2,0 -2.9,-1.5 -2.9,-3 0,-2.3 1.6,-3.1 3,-3.1 0.3,0 1.1,0 1.7,0.4 0.5,0.3 0.6,0.6 0.8,0.9 l 0.1,0.2 4,-0.7 -0.1,-0.3 c -0.4,-1 -1.2,-3.5 -6.5,-3.5 -6.8,0 -7.4,4.6 -7.4,6 0,2.7 1.5,4.7 4.1,5.5 0.9,0.3 1.9,0.4 3.1,0.4 3,0 5.1,-0.9 6.2,-2.6 0.4,-0.6 0.5,-1 0.6,-1.4 l 0.1,-0.3 z m 9.6,1.2 v -8 H 65.3 V 14.4 H 75 v -3.1 z m 7.2,-8 H 81 v 11.1 h -4.3 z m 16.6,6.8 -0.1,0.2 c -0.1,0.3 -0.3,0.6 -0.7,1 -0.5,0.4 -1.2,0.7 -2,0.7 -2,0 -2.9,-1.5 -2.9,-3 0,-2.3 1.6,-3.1 3,-3.1 0.3,0 1.1,0 1.7,0.4 0.5,0.3 0.6,0.6 0.8,1 l 0.1,0.2 4,-0.7 -0.1,-0.3 C 96.7,5.5 95.9,3 90.6,3 c -6.8,0 -7.4,4.6 -7.4,6 0,2.7 1.5,4.7 4.1,5.5 0.9,0.3 1.9,0.4 3.1,0.4 3,0 5.1,-0.9 6.2,-2.6 0.4,-0.6 0.5,-1 0.6,-1.4 l 0.1,-0.3 z m 14,-2.5 4.4,-4.3 h -5.3 l -3.2,3.6 V 3.3 h -4 v 11.1 h 4 v -2.9 l 1,-1 2.7,3.9 h 5.2 z m 25.8,-4.1 c -1,-0.4 -2.3,-0.6 -3.9,-0.6 H 129 c -2.9,0 -4.9,0.9 -6.1,2.6 -0.7,0.9 -1,2.1 -1,3.5 0,1.3 0.3,2.4 1.1,3.3 1.2,1.7 3.2,2.5 6.2,2.5 1.7,0 3.6,-0.2 5.2,-1.5 0.5,-0.4 1,-0.9 1.3,-1.5 0.5,-0.9 0.8,-1.9 0.8,-3 0,-1.9 -0.9,-4.2 -3.4,-5.3 m -1,5.3 c 0,1 -0.4,2.3 -1.5,2.8 -0.4,0.2 -0.8,0.3 -1.4,0.3 -2.2,0 -3,-1.6 -3,-3.1 0,-1.4 0.8,-3.1 2.9,-3.1 h 0.1 c 2.8,0.1 2.9,2.6 2.9,3.1 M 146.6,3.3 V 8.6 C 146.2,8 145.9,7.7 145.2,6.9 l -3.3,-3.6 h -3.5 v 11.1 h 4.2 V 11.4 9 c 0.2,0.3 0.4,0.5 0.8,0.9 l 4,4.5 h 3.5 V 3.3 Z"
         id="path898" />
      <linearGradient
         id="SVGID_1_"
         gradientUnits="userSpaceOnUse"
         x1="113.14"
         y1="8.8559999"
         x2="120.416"
         y2="8.8559999">
        <stop
           offset="0"
           stop-color="#ea2627"
           id="stop900" />
        <stop
           offset="1"
           stop-color="#bd2227"
           id="stop902" />
      </linearGradient>
      <path
         style="fill:url(#linearGradient1137)"
         inkscape:connector-curvature="0"
         d="m 113.1,1.6 v 14.5 l 7.3,-6.9 z"
         id="path905" />
    </g>
    <path
       style="fill:#ec1c24;stroke-width:6.04877377"
       inkscape:connector-curvature="0"
       d="m -641.47374,-37.496194 h 181.46319 V 143.96702 h -181.46319 z"
       id="path909" />
    <path
       style="fill:#ffffff;stroke-width:6.04877377"
       inkscape:connector-curvature="0"
       class="st5"
       d="m -623.9323,75.010991 86.49745,-96.780353 h 35.08288 v 90.126723 h 24.19511 v 30.24386 h -24.19511 v 30.243859 h -32.0585 V 98.601221 h -89.52183 z m 45.97067,-6.65363 h 43.55116 v -48.99509 z"
       id="path911" />
    <g
       id="g917"
       transform="matrix(2.1942372,0,0,2.1942372,-738.23982,-91.470327)">
      <path
         style="fill:#231f20"
         inkscape:connector-curvature="0"
         d="m 44.1,5.3 h 82.7 V 24.6 H 44.1 Z"
         id="path913" />
      <path
         style="fill:#ffffff"
         inkscape:connector-curvature="0"
         class="st5"
         d="m 49.8,8.7 h 3.1 v 10.2 h 7 v 2.3 H 49.8 Z m 24.9,2 c 0.5,0.6 1.3,2 1.3,4.1 0,4 -2.6,6.8 -7.6,6.8 -5.1,0 -7.7,-2.7 -7.7,-6.6 0,-4.3 3.1,-6.5 7.2,-6.7 2.5,-0.1 5.3,0.5 6.8,2.4 M 64,15 c 0,1.5 0.6,2.3 0.8,2.6 0.3,0.4 1.2,1.7 3.7,1.7 2.9,0 4.5,-2 4.5,-4.4 0,-2.8 -2.1,-4.5 -4.6,-4.4 C 66.2,10.6 64,12 64,15 m 29.1,2 c -0.2,0.8 -0.5,1.7 -1.6,2.7 -1,0.9 -2.7,2 -5.9,2 -4.4,0 -7.5,-2.3 -7.5,-6.7 0,-4.7 3.8,-6.6 7.7,-6.6 1.4,0 5.5,0.3 7.2,3.9 l -3.4,0.4 c -0.3,-0.5 -1.3,-2 -3.7,-2 -2.8,0 -4.4,2 -4.4,4.4 0,2.7 2.1,4.4 4.5,4.4 2.7,0 3.5,-1.6 4,-2.4 z m 6.7,-8.3 h 3.4 l 6,12.5 h -3.5 l -1.1,-2.4 h -6.4 l -1.1,2.4 h -3.4 z m 1.9,3.8 c -0.1,-0.2 -0.2,-0.3 -0.2,-0.5 -0.1,-0.2 -0.1,-0.3 -0.1,-0.5 -0.1,0.2 -0.1,0.3 -0.1,0.4 -0.1,0.2 -0.1,0.3 -0.2,0.5 l -1.9,4.2 h 4.4 z M 111,8.7 h 3.2 v 10.2 h 6.9 v 2.3 H 111 Z"
         id="path915" />
    </g>
    <g
       id="g1135"
       transform="matrix(1.6087162,0,0,1.6087162,-712.09638,143.96702)">
      <g
         id="g1007"
         class="st0"
         style="display:none">
        <g
           id="g981"
           class="st1"
           style="display:inline">
          <path
             id="path977"
             d="M 187.2,27.9 C 193,28.3 198.6,22.4 198.6,15.2 198.6,8 193,2.1 186.1,2.1 H 14.6 C 7.7,2.1 2.1,8 2.1,15.2 c 0,7.2 5.6,13.1 13.6,12.7 z"
             inkscape:connector-curvature="0"
             style="fill:#a81e23" />
          <path
             id="path979"
             d="m 186.1,2.1 c 6.9,0 12.5,5.9 12.5,13.1 0,7 -5.3,12.7 -10.9,12.7 H 15 C 7.4,27.9 2.1,22.2 2.1,15.2 2.1,8 7.7,2.1 14.6,2.1 h 171.5 m 0,-2.1 H 14.6 C 6.6,0 0,6.8 0,15.2 0,19.2 1.5,22.9 4.2,25.7 7,28.5 10.8,30 15,30 h 172.7 c 3.3,0 6.6,-1.6 9.1,-4.4 2.5,-2.8 3.9,-6.5 3.9,-10.4 C 200.7,6.8 194.1,0 186.1,0 Z"
             inkscape:connector-curvature="0"
             style="fill:#dcdcdc" />
        </g>
        <path
           id="path983"
           d="m 16.7,20.7 0.6,-3.2 h 4.6 L 21.4,20 c -0.6,3.5 -2.9,5.2 -6.8,5.2 -3.8,0 -5.4,-1.8 -4.7,-5.5 l 1.6,-8.6 c 0.7,-3.7 2.9,-5.5 6.7,-5.5 1.9,0 3.2,0.4 4.1,1.1 0.9,0.7 1.1,2.1 0.8,4 l -0.4,2.1 h -4.6 l 0.5,-2.6 c 0.2,-1 -0.1,-1.5 -1,-1.5 -0.8,0 -1.3,0.5 -1.4,1.5 l -1.9,10.6 c -0.2,1 0.1,1.5 0.9,1.5 0.8,-0.1 1.3,-0.6 1.5,-1.6 z m 12.9,-14.8 -3.5,19 h -4.4 l 3.5,-19 z m 5.6,0 -0.5,2.7 H 30.3 L 30.8,5.9 Z M 34.5,9.7 31.7,25 H 27.3 L 30.1,9.7 Z m 10.8,5.4 h -4.4 l 0.3,-1.7 c 0.1,-0.7 -0.1,-1.1 -0.7,-1.1 -0.6,0 -0.9,0.4 -1.1,1.1 l -1.4,8 c -0.1,0.7 0.1,1.1 0.7,1.1 0.6,0 1,-0.4 1.1,-1.1 L 40.2,19 h 4.4 l -0.4,2.2 c -0.2,1.4 -0.9,2.4 -1.9,3 -1,0.6 -2.4,1 -4.1,1 -3.5,0 -5,-1.4 -4.4,-4.2 l 1.3,-7.1 c 0.2,-1.3 0.9,-2.3 2,-3.1 1.1,-0.8 2.4,-1.2 4,-1.2 1.7,0 2.9,0.3 3.7,1 0.8,0.7 1.1,1.8 0.8,3.3 z m 3.8,9.8 h -4.4 l 3.5,-19 h 4.4 l -1.9,10.7 3.5,-7 h 4.2 l -3.7,6.8 1.2,8.4 h -4.4 l -0.8,-8 z M 170.7,24 h -1.5 l 0.3,-1.4 h 1.5 z m 6.3,-1.8 c -0.2,0.5 -0.9,2 -2.8,2 -2,0 -2.1,-1.5 -1.9,-2.5 0.4,-1.6 1.4,-2.8 3.1,-2.8 0.8,0 2.1,0.4 1.9,2 h -1.4 c 0,-0.3 -0.1,-0.9 -0.7,-0.8 -0.9,0 -1.3,0.8 -1.4,1.5 -0.1,0.6 -0.3,1.7 0.7,1.7 0.7,0 1.1,-0.7 1.1,-0.9 h 1.4 z m 4.7,-0.7 c -0.1,0.7 -0.5,1.6 -1.6,1.6 -1.1,0 -1.1,-0.9 -0.9,-1.6 0.1,-0.6 0.5,-1.5 1.6,-1.5 1.1,-0.1 1.1,0.8 0.9,1.5 z m 1.5,0 c 0.4,-1.8 -0.7,-2.7 -2.1,-2.7 -1.4,0 -2.9,0.8 -3.3,2.7 -0.4,1.8 0.7,2.7 2.1,2.7 1.4,-0.1 2.9,-0.9 3.3,-2.7 z m 7.9,2.5 h -1.4 l 0.7,-3.1 c 0.2,-0.8 -0.1,-1 -0.5,-1 -0.7,0 -1,0.4 -1.2,1 L 188,24 h -1.4 l 0.7,-3.1 c 0.1,-0.4 0.2,-1 -0.6,-1 -0.7,0 -1,0.4 -1.1,1 l -0.7,3.1 h -1.4 l 1.1,-5.1 h 1.3 l -0.2,0.7 c 0.3,-0.3 0.8,-0.9 1.7,-0.9 0.8,0 1.1,0.3 1.3,0.8 0.2,-0.2 0.7,-0.8 1.6,-0.8 1,0 1.7,0.6 1.5,1.7 z"
           class="st4"
           inkscape:connector-curvature="0"
           style="display:inline;fill:#ffffff" />
        <g
           id="g987"
           class="st1"
           style="display:inline">
          <path
             id="path985"
             d="m 91,15.5 -1.7,8.8 H 84.5 L 88.1,5.9 h 4.8 l -1.3,6.8 H 94 l 1.3,-6.8 h 4.7 l -3.6,18.4 h -4.7 l 1.7,-8.8 z M 105.6,12 c 0.6,0 0.9,0.3 0.7,1 l -1.5,7.7 c -0.1,0.7 -0.5,1 -1.1,1 -0.6,0 -0.8,-0.3 -0.7,-1 l 1.5,-7.7 c 0.2,-0.6 0.5,-1 1.1,-1 z m 4.3,-1.7 c -0.9,-0.6 -2.2,-0.9 -3.8,-0.9 -2,0 -3.5,0.4 -4.5,1.2 -1,0.8 -1.6,1.8 -1.8,3 l -1.4,7 c -0.3,1.3 0.1,2.3 1,2.9 0.9,0.7 2.1,1 3.7,1 1.7,0 3.1,-0.4 4.2,-1.1 1.1,-0.7 1.8,-1.7 2,-2.8 l 1.4,-7 c 0.4,-1.6 0.1,-2.7 -0.8,-3.3 z m 11,14 h -4.5 l 0.4,-1.8 c -0.8,1.3 -2,2 -3.7,2 -0.9,0 -1.6,-0.2 -2.1,-0.7 -0.5,-0.5 -0.6,-1.4 -0.3,-2.7 L 113,9.5 h 4.5 l -2,10.3 c -0.1,0.5 -0.1,0.8 0,1 0.1,0.2 0.3,0.3 0.6,0.3 0.6,0 1.1,-0.4 1.2,-1.3 l 2,-10.3 h 4.5 z m 14.5,-11.2 -0.3,1.7 h -4.5 l 0.3,-1.6 c 0.1,-0.7 -0.1,-1.1 -0.7,-1.1 -0.6,0 -1,0.4 -1.1,1.1 -0.1,0.6 0.1,1.1 0.6,1.4 0.7,0.4 1.4,0.8 2.2,1.3 0.8,0.5 1.4,1 1.8,1.6 0.4,0.6 0.5,1.5 0.3,2.6 -0.6,3 -2.8,4.5 -6.6,4.5 -1.5,0 -2.7,-0.3 -3.5,-0.9 -0.8,-0.6 -1.1,-1.5 -0.9,-2.8 l 0.5,-2.3 h 4.5 l -0.4,2.2 c -0.1,0.7 0.1,1.1 0.7,1.1 0.6,0 1,-0.4 1.2,-1.1 0.1,-0.7 0,-1.2 -0.3,-1.5 -0.3,-0.3 -1.1,-0.9 -2.3,-1.5 -1.1,-0.6 -1.9,-1.1 -2.2,-1.7 -0.4,-0.6 -0.5,-1.4 -0.3,-2.4 0.3,-1.4 0.9,-2.4 2,-3.1 1.1,-0.7 2.4,-1 4.1,-1 1.8,0 3.2,0.3 4,0.9 0.8,0.4 1.1,1.3 0.9,2.6 z m 0.8,8.2 1.8,-9.1 h -1.5 L 137,9.5 h 1.5 L 139,6.8 h 4.5 L 143,9.5 h 2 l -0.5,2.7 h -2 l -1.6,8.1 c -0.1,0.5 -0.1,0.9 0,1.1 0.1,0.2 0.4,0.3 0.9,0.3 h 0.9 l -0.5,2.7 h -3.7 c -1,0 -1.7,-0.2 -2,-0.7 -0.5,-0.6 -0.5,-1.4 -0.3,-2.4 z M 150.8,12 c 0.6,0 0.9,0.3 0.7,1 l -1.5,7.7 c -0.1,0.7 -0.5,1 -1.1,1 -0.6,0 -0.8,-0.3 -0.7,-1 l 1.5,-7.7 c 0.1,-0.6 0.5,-1 1.1,-1 z m 4.3,-1.7 c -0.9,-0.6 -2.2,-0.9 -3.8,-0.9 -2,0 -3.5,0.4 -4.5,1.2 -1,0.8 -1.6,1.8 -1.8,3 l -1.4,7 c -0.3,1.3 0.1,2.3 1,2.9 0.9,0.7 2.1,1 3.7,1 1.7,0 3.1,-0.4 4.2,-1.1 1.1,-0.7 1.8,-1.7 2,-2.8 l 1.4,-7 c 0.4,-1.6 0.1,-2.7 -0.8,-3.3 z m 3,-0.8 h 4.5 l -0.4,1.8 c 0.8,-1.3 2,-2 3.7,-2 0.9,0 1.6,0.3 2,0.8 0.5,0.5 0.6,1.4 0.3,2.6 l -2.3,11.6 h -4.5 l 2,-10.3 c 0.1,-0.5 0.1,-0.9 0,-1.1 -0.1,-0.2 -0.3,-0.3 -0.7,-0.3 -0.6,0 -1,0.5 -1.2,1.3 l -2,10.3 H 155 Z"
             class="st5"
             inkscape:connector-curvature="0"
             style="fill:#ffffff" />
        </g>
        <path
           id="path989"
           d="M 60.4,2.1 H 82.6 V 27.9 H 60.4 Z"
           inkscape:connector-curvature="0"
           style="fill:#283984" />
        <path
           id="path991"
           d="M 79.7,22.4 58.6,27 70.8,13.7 l 4,1.8 -0.6,-4 4.6,-3.4 -5.1,1.2 -0.4,-3 -2.9,3.7 -5,1.1 3.1,1.4 -0.7,1 -5.9,1.3 c 0.2,-1 0.5,-2.1 0.9,-3 0.6,-1.4 1.5,-2.6 2.3,-3.6 0.6,-0.7 1,-1.2 1.8,-1.8 0.8,-0.7 1.2,-0.9 2.3,-1.5 1,-0.5 1.8,-0.8 2.8,-1.1 1.9,-0.7 4.9,-0.9 6.4,-0.4 1,0.3 1.7,0.7 2.3,1.6 0.4,0.6 0.5,0.9 0.6,1.6 0.1,0.6 0.2,0.9 0.1,1.5 0,0.8 -0.2,1.4 -0.5,2.1 -0.5,1.1 -1.7,2.6 -2.6,3.6 -0.7,0.8 -1.9,1.8 -3,2.9 -0.6,0.5 -0.9,0.8 -1.4,1.3 l 7.7,-1.7 z"
           class="st4"
           inkscape:connector-curvature="0"
           style="display:inline;fill:#ffffff" />
        <path
           id="path993"
           d="m 80.9,27.4 c 0.7,0 1.1,-0.6 1.1,-1.2 -0.1,-0.8 -0.8,-1.1 -1.2,-1 0.3,-0.2 0.8,-1 0.1,-1.7 C 80.4,23 79.7,23.2 79.5,23.4 79.6,23 79.4,22.1 78.6,22 77.8,21.9 77.5,22.4 77.4,22.7 77.3,22.3 76.9,22 76.3,22 c -0.8,0.1 -1.1,0.9 -1,1.4 -0.3,-0.2 -0.9,-0.3 -1.4,0.1 -0.6,0.6 -0.3,1.5 0.1,1.7 -0.4,0 -1,0.2 -1.1,0.9 -0.1,0.8 0.5,1.3 1.1,1.3 z"
           class="st4"
           inkscape:connector-curvature="0"
           style="display:inline;fill:#ffffff" />
        <path
           id="path995"
           d="m 75.5,24 1.3,2.9 -2.6,-1.8 c -0.7,-0.4 -0.5,-1.2 -0.2,-1.5 0.5,-0.4 1.2,-0.3 1.5,0.4 z"
           inkscape:connector-curvature="0"
           style="fill:#f47735" />
        <path
           id="path997"
           d="m 77.3,23.3 -0.5,3.3 -1.3,-3.1 c -0.3,-0.8 0.4,-1.3 0.8,-1.3 0.5,-0.1 1.1,0.3 1,1.1 z"
           inkscape:connector-curvature="0"
           style="fill:#d31245" />
        <path
           id="path999"
           d="M 79.3,23.5 78,26.6 77.6,23.8 c 0,-0.4 0.2,-0.4 0.3,-0.5 0,-0.1 -0.2,-0.1 -0.2,-0.1 h -0.3 c 0,-0.7 0.5,-1.1 1,-1 0.6,0 1.1,0.6 0.9,1.3 z"
           inkscape:connector-curvature="0"
           style="fill:#8177b7" />
        <path
           id="path1001"
           d="M 80.6,25.1 78,26.9 79.2,24 c 0.4,-0.9 1.3,-0.7 1.6,-0.4 0.3,0.4 0.4,1.1 -0.2,1.5 z"
           inkscape:connector-curvature="0"
           style="fill:#00a0df" />
        <path
           id="path1003"
           d="m 80.9,27.3 h -3.1 l 2.5,-1.7 c 0.6,-0.4 1.3,0 1.4,0.5 0.2,0.5 -0.2,1.2 -0.8,1.2 z"
           inkscape:connector-curvature="0"
           style="fill:#7ac143" />
        <path
           id="path1005"
           d="m 73,26 c 0.2,-0.6 0.9,-0.8 1.5,-0.5 L 77,27.2 H 74 C 73.3,27.3 72.8,26.7 73,26 Z"
           inkscape:connector-curvature="0"
           style="fill:#fdb913" />
      </g>
      <g
         id="g1035"
         class="st0"
         style="display:none">
        <path
           id="path1009"
           d="M 90.4,0 H 112 V 5.2 H 90.4 Z"
           inkscape:connector-curvature="0"
           style="fill:#a81f23" />
        <path
           id="path1011"
           d="M 90.4,4.9 H 112 V 30 H 90.4 Z"
           inkscape:connector-curvature="0"
           style="fill:#293a84" />
        <g
           id="g1029"
           class="st1"
           style="display:inline">
          <path
             id="path1013"
             stroke-miterlimit="3.864"
             d="m 109.2,24.6 -20.6,4.5 11.9,-13 3.9,1.7 -0.6,-3.9 4.5,-3.3 -4.9,1.2 -0.4,-2.8 -2.9,3.6 -4.9,1.1 3,1.4 -0.7,1 -5.7,1.3 c 0.2,-1 0.5,-2 0.9,-2.9 C 93.3,13.1 94.2,12 95,11 95.6,10.3 96,9.9 96.8,9.2 97.6,8.5 98,8.3 99,7.7 c 1,-0.6 1.8,-0.9 2.8,-1.2 1.9,-0.7 4.8,-0.9 6.2,-0.4 0.9,0.3 1.6,0.7 2.2,1.6 0.4,0.5 0.5,0.9 0.6,1.6 0.1,0.6 0.2,0.9 0.1,1.5 0,0.8 -0.2,1.3 -0.5,2 -0.5,1.1 -1.7,2.5 -2.6,3.5 -0.7,0.8 -1.9,1.8 -3,2.8 -0.5,0.5 -0.9,0.8 -1.4,1.2 l 7.5,-1.7 z"
             inkscape:connector-curvature="0"
             style="fill:#ffffff;stroke:#ffffff;stroke-width:0.07;stroke-miterlimit:3.86400008" />
          <path
             id="path1015"
             d="m 110.4,29.5 c 0.7,0 1.1,-0.6 1.1,-1.2 -0.1,-0.8 -0.8,-1 -1.1,-1 0.3,-0.2 0.7,-1 0.1,-1.6 -0.5,-0.5 -1.2,-0.3 -1.4,-0.1 0.1,-0.4 -0.1,-1.2 -0.9,-1.4 -0.7,-0.1 -1.1,0.4 -1.2,0.7 -0.1,-0.3 -0.5,-0.7 -1.1,-0.7 -0.8,0.1 -1.1,0.9 -0.9,1.3 -0.3,-0.2 -0.9,-0.3 -1.4,0.1 -0.6,0.6 -0.3,1.5 0.1,1.7 -0.4,0 -1,0.2 -1.1,0.9 -0.1,0.8 0.5,1.3 1.1,1.3 z"
             class="st5"
             inkscape:connector-curvature="0"
             style="fill:#ffffff" />
          <path
             id="path1017"
             d="m 105.2,26.2 1.2,2.9 -2.6,-1.8 c -0.6,-0.4 -0.5,-1.2 -0.2,-1.5 0.6,-0.4 1.3,-0.2 1.6,0.4 z"
             inkscape:connector-curvature="0"
             style="fill:#f47735" />
          <path
             id="path1019"
             d="m 106.9,25.6 -0.5,3.2 -1.3,-3 c -0.3,-0.8 0.3,-1.3 0.8,-1.3 0.5,-0.1 1.1,0.3 1,1.1 z"
             inkscape:connector-curvature="0"
             style="fill:#d31245" />
          <path
             id="path1021"
             d="m 108.8,25.7 -1.3,3 -0.4,-2.8 c 0,-0.4 0.2,-0.4 0.3,-0.5 0,-0.1 -0.1,-0.1 -0.1,-0.1 h -0.2 c 0,-0.7 0.5,-1 1,-1 0.5,0.2 1,0.7 0.7,1.4 z"
             inkscape:connector-curvature="0"
             style="fill:#8177b7" />
          <path
             id="path1023"
             d="m 110.2,27.3 -2.6,1.8 1.2,-2.8 c 0.4,-0.9 1.2,-0.7 1.5,-0.4 0.4,0.3 0.5,1 -0.1,1.4 z"
             inkscape:connector-curvature="0"
             style="fill:#00a0df" />
          <path
             id="path1025"
             d="m 110.4,29.4 h -3 l 2.4,-1.7 c 0.6,-0.4 1.2,0 1.4,0.5 0.2,0.6 -0.2,1.2 -0.8,1.2 z"
             inkscape:connector-curvature="0"
             style="fill:#7ac143" />
          <path
             id="path1027"
             d="m 102.7,28.1 c 0.2,-0.6 0.9,-0.8 1.4,-0.4 l 2.4,1.7 h -2.9 c -0.6,0 -1.1,-0.6 -0.9,-1.3 z"
             inkscape:connector-curvature="0"
             style="fill:#fdb913" />
        </g>
        <g
           id="g1033"
           class="st1"
           style="display:inline">
          <path
             id="path1031"
             d="m 92.7,2 h 0.5 L 94.6,0.7 H 96 l -1.9,1.8 2.2,1.8 H 94.8 L 93.2,3 H 92.7 V 4.3 H 91.6 V 0.7 h 1.1 z m 6.9,-1.3 h 0.6 c 0.1,0 0.3,0.1 0.4,0.1 0.2,0.1 0.3,0.2 0.4,0.4 V 2 c 0,0.5 -0.1,0.8 -0.2,1 -0.2,0.2 -0.4,0.3 -0.8,0.3 H 98 V 4.2 H 96.9 V 0.7 Z m -0.1,0.9 h -1.6 v 0.9 h 1.6 c 0.1,0 0.2,0 0.3,-0.1 0.1,-0.1 0.1,-0.2 0.1,-0.4 0,-0.1 0,-0.3 -0.1,-0.3 0,-0.1 -0.1,-0.1 -0.3,-0.1 z m 4.9,-0.9 c 0.6,0 0.9,0.1 1.2,0.3 0.2,0.2 0.3,0.5 0.3,0.9 0,0.3 0,0.5 -0.1,0.7 -0.1,0.1 -0.2,0.3 -0.5,0.3 0.2,0 0.3,0.1 0.4,0.2 0.1,0.1 0.1,0.3 0.1,0.4 v 0.7 h -1.1 V 3.7 c 0,-0.1 0,-0.2 -0.1,-0.3 -0.1,-0.1 -0.2,-0.1 -0.4,-0.1 h -1.6 v 0.9 h -1.1 V 0.7 Z m 0,0.9 h -1.7 v 0.9 h 1.7 c 0.1,0 0.2,0 0.3,-0.1 0.1,-0.1 0.1,-0.2 0.1,-0.4 0,-0.1 0,-0.2 -0.1,-0.3 -0.1,-0.1 -0.2,-0.1 -0.3,-0.1 z m 5.5,0.4 c 0,-0.2 0,-0.3 -0.1,-0.3 -0.1,-0.1 -0.2,-0.1 -0.4,-0.1 h -0.9 c -0.4,0 -0.6,0 -0.7,0.1 -0.1,0.1 -0.2,0.3 -0.2,0.6 v 0.5 c 0,0.3 0.1,0.4 0.2,0.5 0.1,0.1 0.4,0.1 0.7,0.1 h 0.6 c 0.3,0 0.6,0 0.7,-0.1 0.1,-0.1 0.2,-0.2 0.2,-0.4 h 1.1 v 0.2 c 0,0.2 0,0.4 -0.1,0.6 -0.1,0.1 -0.1,0.3 -0.3,0.4 -0.1,0.1 -0.3,0.1 -0.5,0.2 -0.2,0 -0.5,0.1 -0.9,0.1 h -1.2 c -0.4,0 -0.6,0 -0.8,-0.1 -0.2,0 -0.3,-0.1 -0.4,-0.2 C 106.8,4 106.7,3.8 106.6,3.7 106.5,3.5 106.5,3.3 106.5,3.1 V 2 c 0,-0.5 0.1,-0.9 0.4,-1.1 0.2,-0.2 0.7,-0.3 1.3,-0.3 h 1.2 c 0.4,0 0.7,0 0.9,0.1 0.2,0 0.3,0.1 0.4,0.2 0.1,0.1 0.2,0.2 0.2,0.3 0.1,0.1 0.1,0.3 0.1,0.5 v 0.2 h -1.1 z"
             class="st5"
             inkscape:connector-curvature="0"
             style="fill:#ffffff" />
        </g>
      </g>
      <g
         id="g1057"
         class="st0"
         style="display:none">
        <g
           class="st1"
           id="ClickOn"
           style="display:inline">
          <path
             id="path1037"
             d="m 90.3,27.8 h 20 V 30 h -20 z"
             class="st22"
             inkscape:connector-curvature="0"
             style="fill:#231f20" />
          <path
             id="path1039"
             d="m 90.3,24.7 h 20 v 3.2 h -20 z"
             class="st22"
             inkscape:connector-curvature="0"
             style="fill:#231f20" />
          <path
             id="path1041"
             d="m 90.5,24.8 h 19.7 v 2.9 H 90.5 Z m 2.1,3.3 h -0.9 v 1.4 h 0.7 c 0.2,0 0.5,0 0.7,-0.3 0.1,-0.1 0.1,-0.3 0.1,-0.5 0.1,-0.3 -0.2,-0.6 -0.6,-0.6 m 0.2,1 c -0.1,0.1 -0.2,0.1 -0.3,0.1 h -0.3 v -0.8 h 0.4 c 0.1,0 0.2,0 0.3,0.1 0,0.1 0.1,0.2 0.1,0.3 -0.1,0.1 -0.2,0.2 -0.2,0.3 M 95,29 h 0.9 V 28.7 H 95 v -0.3 h 0.9 v -0.3 h -1.3 v 1.4 H 96 v -0.3 h -1 z m 2.2,-0.6 h 0.5 v 1.1 h 0.4 v -1.1 h 0.5 v -0.3 h -1.4 z m 4.1,0.5 c 0.1,-0.1 0.1,-0.3 0.1,-0.3 0,-0.1 0,-0.2 -0.1,-0.3 -0.1,-0.1 -0.3,-0.2 -0.4,-0.2 h -1 v 1.4 h 0.4 V 29 h 0.3 l 0.4,0.5 h 0.5 l -0.4,-0.6 h 0.2 m -1,-0.5 h 0.5 c 0.1,0 0.2,0 0.2,0.1 v 0.1 c 0,0.1 -0.1,0.1 -0.2,0.1 h -0.5 z m 3.3,-0.3 c -0.6,0 -0.9,0.3 -0.9,0.8 0,0.5 0.3,0.8 0.9,0.8 0.5,0 0.9,-0.3 0.9,-0.8 0,-0.3 -0.1,-0.4 -0.2,-0.5 -0.1,-0.2 -0.4,-0.3 -0.7,-0.3 m 0.5,0.7 c 0,0.3 -0.2,0.5 -0.5,0.5 -0.3,0 -0.3,-0.1 -0.4,-0.2 0,0 -0.1,-0.1 -0.1,-0.3 0,-0.3 0.2,-0.5 0.4,-0.5 0.4,0.1 0.6,0.3 0.6,0.5 m 1.8,-0.7 h 0.4 v 1.4 h -0.4 z m 1.7,0 v 0.3 h 0.5 v 1.1 h 0.4 v -1.1 h 0.5 v -0.3 z"
             class="st5"
             inkscape:connector-curvature="0"
             style="fill:#ffffff" />
          <path
             id="path1043"
             d="m 93.2,26.5 c 0,0.1 -0.1,0.1 -0.1,0.2 -0.1,0.1 -0.2,0.1 -0.4,0.1 -0.4,0 -0.5,-0.3 -0.5,-0.5 0,-0.4 0.3,-0.5 0.5,-0.5 0.1,0 0.2,0 0.3,0.1 0.1,0.1 0.1,0.1 0.1,0.2 L 93.8,26 c -0.1,-0.2 -0.2,-0.6 -1.2,-0.6 -1.2,0 -1.3,0.8 -1.3,1.1 0,0.5 0.3,0.8 0.7,1 0.2,0 0.3,0.1 0.6,0.1 0.5,0 0.9,-0.2 1.1,-0.5 0.1,-0.1 0.1,-0.2 0.1,-0.2 z m 1.7,0.2 v -1.4 h -0.8 v 1.9 h 1.7 v -0.5 z m 1.3,-1.4 H 97 v 2 h -0.8 z m 2.9,1.2 c 0,0.1 -0.1,0.1 -0.1,0.2 -0.1,0.1 -0.2,0.1 -0.4,0.1 -0.4,0 -0.5,-0.3 -0.5,-0.5 0,-0.4 0.3,-0.5 0.5,-0.5 0.1,0 0.2,0 0.3,0.1 C 99,26 99,26 99,26.1 L 99.7,26 c -0.1,-0.2 -0.2,-0.6 -1.2,-0.6 -1.2,0 -1.3,0.8 -1.3,1.1 0,0.5 0.3,0.8 0.7,1 0.2,0 0.3,0.1 0.6,0.1 0.5,0 0.9,-0.2 1.1,-0.5 0.1,-0.1 0.1,-0.2 0.1,-0.2 z m 2.5,-0.5 0.8,-0.7 h -1 l -0.5,0.6 v -0.6 h -0.8 v 1.9 h 0.8 v -0.5 l 0.1,-0.2 0.5,0.7 h 0.9 z m 4.6,-0.7 c -0.2,-0.1 -0.4,-0.1 -0.7,-0.1 -0.5,0 -0.9,0.2 -1.1,0.5 -0.1,0.2 -0.2,0.4 -0.2,0.6 0,0.2 0.1,0.4 0.2,0.6 0.2,0.3 0.6,0.4 1.1,0.4 0.3,0 0.6,0 0.9,-0.3 0.1,-0.1 0.2,-0.2 0.2,-0.3 0.1,-0.2 0.1,-0.3 0.1,-0.5 0.1,-0.3 -0.1,-0.7 -0.5,-0.9 m -0.2,0.9 c 0,0.2 -0.1,0.4 -0.3,0.5 h -0.3 c -0.4,0 -0.5,-0.3 -0.5,-0.6 0,-0.3 0.1,-0.5 0.5,-0.5 0.6,0.1 0.6,0.6 0.6,0.6 m 2.5,-0.9 v 1 c -0.1,-0.1 -0.1,-0.2 -0.3,-0.3 l -0.6,-0.6 H 107 v 2 h 0.7 v -0.9 c 0,0 0.1,0.1 0.1,0.2 l 0.7,0.8 h 0.6 v -2 h -0.6 z"
             class="st22"
             inkscape:connector-curvature="0"
             style="fill:#231f20" />
          <path
             id="path1045"
             d="m 102.6,25 v 2.5 l 1.3,-1.2 z"
             class="st23"
             inkscape:connector-curvature="0"
             style="fill:#ec1c24" />
        </g>
        <g
           class="st1"
           id="Local_4"
           style="display:inline">
          <path
             id="path1048"
             d="m 90.3,0 h 20 v 4.7 h -20 z"
             class="st22"
             inkscape:connector-curvature="0"
             style="fill:#231f20" />
          <path
             id="path1050"
             d="m 91.7,0.8 h 0.8 v 2.5 h 1.7 v 0.6 h -2.5 z m 6.1,0.5 c 0.1,0.1 0.3,0.5 0.3,1 0,1 -0.6,1.6 -1.8,1.6 -1.2,0 -1.9,-0.7 -1.9,-1.6 0,-1 0.7,-1.6 1.7,-1.6 0.6,0 1.3,0.2 1.7,0.6 m -2.7,1.1 c 0,0.4 0.1,0.6 0.2,0.6 0.1,0.1 0.3,0.4 0.9,0.4 0.7,0 1.1,-0.5 1.1,-1.1 0,-0.7 -0.5,-1.1 -1.1,-1.1 -0.5,0.1 -1.1,0.4 -1.1,1.2 m 7.1,0.4 c -0.1,0.2 -0.1,0.4 -0.4,0.7 -0.2,0.2 -0.6,0.5 -1.4,0.5 -1.1,0 -1.8,-0.6 -1.8,-1.6 0,-1.1 0.9,-1.6 1.9,-1.6 0.3,0 1.3,0.1 1.7,0.9 l -0.8,0.1 c -0.1,-0.1 -0.3,-0.5 -0.9,-0.5 -0.7,0 -1.1,0.5 -1.1,1.1 0,0.7 0.5,1.1 1.1,1.1 0.7,0 0.9,-0.4 1,-0.6 z m 1.6,-2 h 0.8 l 1.5,3 h -0.8 L 105,3.3 h -1.6 l -0.3,0.6 h -0.8 z m 0.5,1 c 0,0 0,-0.1 -0.1,-0.1 V 1.6 1.8 l -0.5,1 h 1.1 z m 2.2,-1 h 0.8 v 2.5 h 1.7 v 0.6 h -2.5 z"
             class="st5"
             inkscape:connector-curvature="0"
             style="fill:#ffffff" />
          <path
             id="path1052"
             d="m 90.3,4.7 h 20 v 20 h -20 z"
             class="st23"
             inkscape:connector-curvature="0"
             style="fill:#ec1c24" />
          <path
             id="path1054"
             d="m 92.3,17.1 9.5,-10.7 h 3.9 v 10 h 2.6 v 3.3 h -2.6 V 23 h -3.5 v -3.3 h -9.9 z m 5,-0.8 h 4.8 v -5.4 z"
             class="st5"
             inkscape:connector-curvature="0"
             style="fill:#ffffff" />
        </g>
      </g>
      <path
         id="path1059"
         d="M 44,17.8 H 156.8 V 30 H 44 Z"
         class="st22"
         inkscape:connector-curvature="0"
         style="fill:#231f20" />
      <path
         id="path1061"
         d="M 43.9,0 H 156.7 V 17.9 H 43.9 Z"
         class="st22"
         inkscape:connector-curvature="0"
         style="fill:#231f20" />
      <path
         id="path1063"
         d="M 44.8,0.9 H 155.9 V 17.2 H 44.8 Z"
         class="st5"
         inkscape:connector-curvature="0"
         style="fill:#ffffff" />
      <path
         id="path1065"
         d="M 156.7,0 H 44"
         class="st23"
         inkscape:connector-curvature="0"
         style="fill:#ec1c24" />
      <path
         id="path1067"
         d="m 56.9,19.3 h -5.3 v 8 h 4.1 c 1.2,0 2.7,0 3.8,-1.5 0.5,-0.7 0.8,-1.6 0.8,-2.6 C 60.4,21 59,19.5 56.9,19.3 m 0.8,5.7 c -0.5,0.7 -1.2,0.7 -1.9,0.7 h -2 V 21 h 2.1 c 0.6,0 1.4,0 1.8,0.7 0.2,0.4 0.4,0.9 0.4,1.5 0,0.8 -0.1,1.4 -0.4,1.8 m 12.4,-0.9 h 5.1 V 22.4 H 70.1 V 21 h 5.3 v -1.7 h -7.5 v 8 h 7.7 V 25.6 H 70.1 Z M 82.5,21 h 2.9 v 6.3 h 2.2 V 21 h 2.9 v -1.7 h -8 z m 23.1,2.6 c 0.7,-0.6 0.8,-1.5 0.8,-1.8 0,-0.4 -0.1,-1 -0.5,-1.6 -0.7,-0.8 -1.6,-0.9 -2.4,-0.9 H 98 v 8 h 2.3 v -3.1 h 1.9 l 2.1,3.1 H 107 L 104.6,24 c 0.2,0 0.6,-0.2 1,-0.4 M 100.2,21 h 2.8 c 0.7,0 0.9,0.2 1,0.3 0.1,0.2 0.1,0.4 0.1,0.5 0,0.5 -0.3,0.8 -1,0.8 h -2.9 z m 18.5,-2 h -0.3 c -2.9,0.1 -4.6,1.7 -4.6,4.3 0,2.6 1.9,4.3 4.9,4.3 3,0 4.9,-1.6 4.9,-4.3 0,-1.4 -0.6,-2.3 -0.9,-2.6 -0.8,-1.1 -2.3,-1.7 -4,-1.7 m 2.6,4.3 c 0,1.5 -1,2.5 -2.6,2.5 -1.4,0 -1.9,-0.7 -2.1,-1 -0.1,-0.2 -0.5,-0.6 -0.5,-1.5 0,-1.7 1.3,-2.6 2.5,-2.6 h 0.1 c 1.5,0.1 2.6,1.1 2.6,2.6 m 10.3,-4 h 2.3 v 8 h -2.3 z m 9.6,0 V 21 h 2.9 v 6.3 h 2.2 V 21 h 2.9 v -1.7 z"
         class="st5"
         inkscape:connector-curvature="0"
         style="fill:#ffffff" />
      <path
         id="path1069"
         d="m 59.9,10.1 -0.1,0.2 c -0.1,0.3 -0.3,0.6 -0.7,1 -0.5,0.4 -1.2,0.7 -2,0.7 -2,0 -2.9,-1.5 -2.9,-3 0,-2.3 1.6,-3.1 3,-3.1 0.3,0 1.1,0 1.7,0.4 0.5,0.3 0.6,0.6 0.8,0.9 l 0.1,0.2 4,-0.7 -0.1,-0.3 c -0.4,-1 -1.2,-3.5 -6.5,-3.5 -6.8,0 -7.4,4.6 -7.4,6 0,2.7 1.5,4.7 4.1,5.5 0.9,0.3 1.9,0.4 3.1,0.4 3,0 5.1,-0.9 6.2,-2.6 0.4,-0.6 0.5,-1 0.6,-1.4 l 0.1,-0.3 z m 9.6,1.2 v -8 H 65.3 V 14.4 H 75 v -3.1 z m 7.2,-8 H 81 v 11.1 h -4.3 z m 16.6,6.8 -0.1,0.2 c -0.1,0.3 -0.3,0.6 -0.7,1 -0.5,0.4 -1.2,0.7 -2,0.7 -2,0 -2.9,-1.5 -2.9,-3 0,-2.3 1.6,-3.1 3,-3.1 0.3,0 1.1,0 1.7,0.4 0.5,0.3 0.6,0.6 0.8,1 l 0.1,0.2 4,-0.7 -0.1,-0.3 C 96.7,5.5 95.9,3 90.6,3 c -6.8,0 -7.4,4.6 -7.4,6 0,2.7 1.5,4.7 4.1,5.5 0.9,0.3 1.9,0.4 3.1,0.4 3,0 5.1,-0.9 6.2,-2.6 0.4,-0.6 0.5,-1 0.6,-1.4 l 0.1,-0.3 z m 14,-2.5 4.4,-4.3 h -5.3 l -3.2,3.6 V 3.3 h -4 v 11.1 h 4 v -2.9 l 1,-1 2.7,3.9 h 5.2 z m 25.8,-4.1 c -1,-0.4 -2.3,-0.6 -3.9,-0.6 H 129 c -2.9,0 -4.9,0.9 -6.1,2.6 -0.7,0.9 -1,2.1 -1,3.5 0,1.3 0.3,2.4 1.1,3.3 1.2,1.7 3.2,2.5 6.2,2.5 1.7,0 3.6,-0.2 5.2,-1.5 0.5,-0.4 1,-0.9 1.3,-1.5 0.5,-0.9 0.8,-1.9 0.8,-3 0,-1.9 -0.9,-4.2 -3.4,-5.3 m -1,5.3 c 0,1 -0.4,2.3 -1.5,2.8 -0.4,0.2 -0.8,0.3 -1.4,0.3 -2.2,0 -3,-1.6 -3,-3.1 0,-1.4 0.8,-3.1 2.9,-3.1 h 0.1 c 2.8,0.1 2.9,2.6 2.9,3.1 M 146.6,3.3 V 8.6 C 146.2,8 145.9,7.7 145.2,6.9 l -3.3,-3.6 h -3.5 v 11.1 h 4.2 V 9 c 0.2,0.3 0.4,0.5 0.8,0.9 l 4,4.5 h 3.5 V 3.3 Z"
         class="st22"
         inkscape:connector-curvature="0"
         style="fill:#231f20" />
      <path
         id="path1076"
         d="m 113.1,1.6 v 14.5 l 7.3,-6.9 z"
         inkscape:connector-curvature="0"
         style="fill:url(#linearGradient1139)" />
    </g>
  </g>
  <style
     id="style826">.st0{display:none}.st1,.st4{display:inline}.st4,.st5{fill:#fff}.st22{display:inline;fill:#231f20}</style>
  <style
     id="style975">.st0{display:none}.st1,.st4{display:inline}.st4,.st5{fill:#fff}.st22{fill:#231f20}.st23{fill:#ec1c24}</style>
</svg>
